<?xml version="1.0" encoding="UTF-8" standalone="no"?>
<!-- Created with Inkscape (http://www.inkscape.org/) -->

<svg
   width="512"
   height="512"
   viewBox="0 0 135.46666 135.46667"
   version="1.1"
   id="svg1"
   inkscape:version="1.4.2 (f4327f4, 2025-05-13)"
   sodipodi:docname="icon.svg"
   xmlns:inkscape="http://www.inkscape.org/namespaces/inkscape"
   xmlns:sodipodi="http://sodipodi.sourceforge.net/DTD/sodipodi-0.dtd"
   xmlns:xlink="http://www.w3.org/1999/xlink"
   xmlns="http://www.w3.org/2000/svg"
   xmlns:svg="http://www.w3.org/2000/svg">
  <sodipodi:namedview
     id="namedview1"
     pagecolor="#ffffff"
     bordercolor="#000000"
     borderopacity="0.25"
     inkscape:showpageshadow="2"
     inkscape:pageopacity="0.0"
     inkscape:pagecheckerboard="0"
     inkscape:deskcolor="#d1d1d1"
     inkscape:document-units="mm"
     inkscape:zoom="0.78840488"
     inkscape:cx="272.70252"
     inkscape:cy="358.31843"
     inkscape:window-width="1920"
     inkscape:window-height="1129"
     inkscape:window-x="-8"
     inkscape:window-y="-8"
     inkscape:window-maximized="1"
     inkscape:current-layer="layer1" />
  <defs
     id="defs1">
    <linearGradient
       id="linearGradient3"
       inkscape:collect="always">
      <stop
         style="stop-color:#ffff00;stop-opacity:1"
         offset="0"
         id="stop3" />
      <stop
         style="stop-color:#27d827;stop-opacity:1;"
         offset="1"
         id="stop4" />
    </linearGradient>
    <linearGradient
       id="linearGradient1"
       inkscape:collect="always">
      <stop
         style="stop-color:#000000;stop-opacity:1"
         offset="0"
         id="stop1" />
      <stop
         style="stop-color:#0000ff;stop-opacity:1"
         offset="1"
         id="stop2" />
    </linearGradient>
    <linearGradient
       inkscape:collect="always"
       xlink:href="#linearGradient1"
       id="linearGradient2"
       x1="13.928104"
       y1="117.76009"
       x2="123.23634"
       y2="11.712631"
       gradientUnits="userSpaceOnUse"
       gradientTransform="matrix(0.7290923,0,0,0.7290923,19.408529,18.276318)" />
    <linearGradient
       inkscape:collect="always"
       xlink:href="#linearGradient3"
       id="linearGradient4"
       x1="11.41017"
       y1="123.96515"
       x2="127.11673"
       y2="9.1922674"
       gradientUnits="userSpaceOnUse" />
  </defs>
  <g
     inkscape:label="Layer 1"
     inkscape:groupmode="layer"
     id="layer1">
    <rect
       style="fill:url(#linearGradient4);stroke-width:0.499999;paint-order:stroke fill markers"
       id="rect2"
       width="119.0625"
       height="119.0625"
       x="9.7322035"
       y="8.0542374"
       rx="10.583333"
       ry="10.583333" />
    <path
       style="font-weight:bold;font-size:119.553px;font-family:'Adobe Gothic Std';-inkscape-font-specification:'Adobe Gothic Std Bold';text-align:center;text-anchor:middle;fill:url(#linearGradient2);stroke-width:1.1439;paint-order:stroke fill markers"
       d="m 30.936046,102.96074 q -0.255367,0.1277 -0.808661,0.51074 -0.510733,0.38306 -0.808662,0.59587 0.638417,-2.38342 3.319767,-2.38342 0.936345,0 1.787568,0.2128 0.851222,0.2128 1.659884,0.55329 2.979277,0 5.915995,-0.25536 2.936717,-0.25537 5.915996,-0.5533 1.489639,-3.277209 2.213178,-6.213924 0.7661,-2.936717 0.7661,-6.55441 0,-3.149524 -0.7661,-6.299047 -0.723539,-3.192084 -1.361955,-6.299046 -0.553296,-2.638788 -0.851223,-5.32014 -0.297928,-2.68135 -0.638417,-5.40526 -1.659884,-2.255741 -2.979278,-4.341235 -1.319395,-2.085495 -2.255739,-4.213552 -0.936344,-2.170617 -1.447079,-4.554039 -0.468172,-2.383423 -0.468172,-5.235018 0,-3.447451 -0.893785,-6.767217 -0.85122,-3.745379 -4.894527,-3.745379 l -0.680979,-0.468172 q -0.255365,-0.510734 -0.255365,-1.276834 0,-1.234273 0.936344,-2.25574 0.936344,-1.021467 1.91525,-1.659883 0.595856,-1.447077 1.617323,-2.340862 1.021466,-0.893783 2.255739,-1.361954 1.276834,-0.468173 2.723913,-0.638419 1.447077,-0.212805 2.809032,-0.212805 2.596228,0 4.979651,0.553295 2.425985,0.553295 4.468919,1.745006 2.042933,1.14915 3.660256,2.979278 1.659884,1.787567 2.596228,4.298673 3.192083,1.787567 5.362701,3.660256 2.213178,1.872689 3.915622,4.000746 1.702446,2.128055 3.234645,4.596601 1.532201,2.425983 3.490013,5.3627 1.574762,2.425984 3.149522,4.766846 1.617323,2.340861 3.277206,4.724285 5.830875,8.512222 12.300165,16.428591 6.511849,7.916368 13.406759,15.577365 l -0.97891,1.319402 -9.235761,-3.70282 q 1.447081,1.659884 2.979281,3.277207 1.57476,1.61732 3.02183,3.319756 l -0.2128,1.191719 q -2.04293,1.87269 -4.29866,2.63879 -2.25575,0.80866 -4.937106,1.06402 l -8.256857,0.68098 -0.680979,-0.4256 q -1.830128,-2.76648 -3.660256,-5.618069 -1.787568,-2.809034 -3.78794,-5.490391 -1.957812,-2.681348 -4.213551,-5.14989 -2.213178,-2.511106 -4.851967,-4.639163 -0.638416,2.213178 -1.191711,4.468919 -0.553295,2.213181 -1.021468,4.554039 l -1.319394,0.34049 -3.106961,-2.213182 q -0.297928,1.404524 -0.468173,2.851594 -0.170244,1.489639 -0.170244,2.936716 0,0.68098 0,1.447078 0,0.76611 0.170244,1.44708 0.127684,0.42562 0.297928,0.808659 0.170245,0.38306 0.468172,0.63842 0.468172,0.38306 1.574761,0.63841 1.149151,0.29793 2.425984,0.46818 1.319394,0.2128 2.511106,0.29793 1.191712,0.0851 1.830129,0.12768 0.297929,-0.29792 0.851223,-0.68098 0.553293,-0.38305 1.021466,-0.38305 1.14915,0 1.659884,0.89378 0.553294,0.89379 0.553294,1.8727 l -2.042933,-1.27684 -1.234274,1.14915 q -0.510731,0.0425 -1.064027,0.0425 -0.510733,0 -1.021467,0 -1.574762,0 -3.192083,-0.12768 -1.617323,-0.12769 -3.064401,-0.59586 -1.106589,0.55329 -2.511106,0.55329 -0.893783,0 -1.787568,-0.17024 -0.893782,-0.12769 -1.745006,-0.46817 -2.042933,0.59585 -4.170989,0.68098 -2.128056,0.12768 -4.213551,0.12768 l -1.489639,-1.1066 q -0.638417,0.25537 -1.021467,0.42562 -0.38305,0.2128 -0.851223,0.68098 H 31.872391 Z m 11.278697,-61.500801 0.595855,-5.235018 q -2.042932,0 -3.319766,-1.10659 -1.276834,-1.106589 -1.830129,-3.0644 -0.723539,0.680977 -1.574761,1.319395 -0.808662,0.595856 -1.021467,1.617322 2.596228,0.170245 3.958184,1.659883 1.361957,1.447078 1.957811,3.490013 0.595855,2.042933 0.72354,4.341234 0.170244,2.298301 0.297927,4.21355 0.340489,-1.489639 0.766101,-2.553667 0.468171,-1.106589 1.14915,-1.830128 0.723539,-0.723539 1.745005,-1.064028 1.064028,-0.38305 2.723912,-0.38305 5.788312,0 11.236135,1.106589 5.447824,1.064028 10.938208,2.468545 -1.106589,-1.404517 -2.085495,-2.511106 -0.978905,-1.14915 -2.000372,-2.170617 -1.021466,-1.021466 -2.25574,-1.91525 -1.234272,-0.893783 -2.809034,-1.745007 -0.7661,-0.425611 -1.319394,-0.893783 -0.510734,-0.510733 -0.723538,-1.319394 -0.34049,-1.234273 -1.276834,-2.340862 -0.936345,-1.10659 -2.128057,-2.042934 -1.149149,-0.936344 -2.468545,-1.574761 -1.319394,-0.680977 -2.511106,-1.106589 2.25574,1.361955 3.064401,2.894156 0.808661,1.532201 0.808661,4.17099 0,1.745006 -0.638417,2.936717 -0.595854,1.191711 -1.659884,1.915251 -1.021467,0.723539 -2.425983,1.064027 -1.404517,0.297928 -2.979278,0.297928 -0.468172,0 -0.936346,0 -0.468171,0 -0.936344,-0.04256 l 0.127684,-1.617323 q 0.383051,0.04256 0.7661,0.08511 0.383049,0 0.808662,0 1.14915,0 2.213178,-0.255366 1.106588,-0.255367 1.957811,-0.808662 0.851223,-0.553294 1.319394,-1.489638 0.510733,-0.936345 0.510733,-2.213179 0,-3.44745 -2.128055,-5.192456 -2.128056,-1.787567 -5.447823,-1.787567 -0.936344,0 -1.957811,0.08511 -1.021467,0.04256 -1.915251,0.383052 -0.893784,0.297927 -1.447078,0.978905 -0.553295,0.638416 -0.553295,1.872688 0,0.978907 0.510735,1.574762 0.553293,0.595856 1.319394,0.936345 0.766101,0.297928 1.659884,0.425611 0.893783,0.08512 1.659883,0.08512 l -0.936344,6.426729 z m -0.468173,-9.06552 q 0,-0.80866 0.34049,-1.319394 0.38305,-0.510733 1.191711,-0.510733 0.766101,0 1.617322,0.723539 0.893785,0.680978 1.361957,1.149149 -0.595857,0.425612 -1.447078,0.936346 -0.808663,0.468172 -1.532201,0.468172 -1.532201,0 -1.532201,-1.447079 z M 71.283987,48.3974 q -2.340861,-0.978905 -5.575505,-1.617321 -3.234647,-0.680979 -6.724658,-1.10659 -3.490013,-0.468172 -6.809779,-0.680978 -3.319768,-0.212805 -5.958558,-0.212805 -0.766099,0.38305 -1.319394,1.021467 -0.510734,0.638416 -0.851221,1.447078 -0.297928,0.808661 -0.468173,1.659884 -0.127683,0.851222 -0.127683,1.617322 0,4.298672 1.5322,7.61844 1.532199,3.277206 3.915622,6.639535 2.000373,2.766473 4.979651,5.277578 2.979279,2.468546 6.596974,4.724285 3.617696,2.255739 7.661001,4.256112 4.085868,1.957811 8.129175,3.702816 4.085867,1.702447 7.958928,3.106962 3.873062,1.404518 7.235393,2.511107 1.149148,0.38305 2.42598,0.680974 1.319402,0.297929 2.46855,0.766105 l 9.40602,3.787942 Q 99.502006,86.40448 93.62858,79.12653 87.755141,71.806017 82.39244,63.97477 79.583406,59.974025 76.944617,55.845597 74.305827,51.674606 71.496793,47.673861 Z m -4.426356,42.475996 2.383423,-9.406005 q -2.298301,-0.936346 -4.979651,-2.383423 -2.681351,-1.447077 -5.362703,-3.234645 -2.68135,-1.787568 -5.107331,-3.660256 -2.383423,-1.91525 -4.000746,-3.702817 0.680977,2.255738 2.128054,5.107333 1.489641,2.851596 3.149524,5.830874 1.702445,2.936717 3.40489,5.788312 1.745005,2.851594 2.979279,5.107338 l 2.468544,-1.617325 z m -7.192828,-0.383052 -9.789059,-17.23725 q 0.297928,1.617323 0.808662,3.617695 0.510732,1.957812 0.978905,4.000745 0.468174,2.000373 0.723539,3.74538 0.297929,1.745006 0.297929,3.0644 0,0.340489 0,0.680978 1.19171,1.191711 2.511105,2.298297 1.361956,1.106596 2.681351,2.128059 z m 28.388266,12.768336 q 1.745007,-0.0851 3.830504,-0.21279 2.08549,-0.0851 4.128427,-0.38306 2.085488,-0.25536 4.00074,-0.93634 1.91526,-0.68098 3.36233,-1.915259 l -8.086614,-8.554783 q -5.873432,-2.042937 -11.746867,-3.873061 -5.830872,-1.830129 -11.491501,-4.55404 2.425983,1.957812 4.596601,4.426356 2.213178,2.425983 4.170989,5.107332 1.957811,2.681348 3.745378,5.490385 1.787568,2.80904 3.490013,5.40526 z M 57.451625,94.661331 53.536,91.426694 q -1.19171,2.298295 -1.745004,4.979652 -0.510734,2.681345 -0.510734,5.235014 2.128056,0 4.256112,-0.17025 2.170617,-0.12767 4.21355,-0.72354 0.851223,-1.915239 1.021468,-3.830488 0.170244,-1.872699 0.170244,-3.915627 0,-0.297929 -0.04256,-0.510736 -0.04256,-0.255369 -0.04256,-0.425605 0,-0.170246 0.04256,-0.340491 l -2.170616,2.809032 z"
       id="text1"
       aria-label="𓅃" />
  </g>
</svg>
