<?xml version="1.0" encoding="UTF-8" standalone="no"?>
<!-- Created with Inkscape (http://www.inkscape.org/) -->

<svg
   width="512"
   height="512"
   viewBox="0 0 135.46666 135.46667"
   version="1.1"
   id="svg1"
   inkscape:version="1.4.2 (f4327f4, 2025-05-13)"
   sodipodi:docname="icon.svg"
   xmlns:inkscape="http://www.inkscape.org/namespaces/inkscape"
   xmlns:sodipodi="http://sodipodi.sourceforge.net/DTD/sodipodi-0.dtd"
   xmlns:xlink="http://www.w3.org/1999/xlink"
   xmlns="http://www.w3.org/2000/svg"
   xmlns:svg="http://www.w3.org/2000/svg">
  <sodipodi:namedview
     id="namedview1"
     pagecolor="#ffffff"
     bordercolor="#000000"
     borderopacity="0.25"
     inkscape:showpageshadow="2"
     inkscape:pageopacity="0.0"
     inkscape:pagecheckerboard="0"
     inkscape:deskcolor="#d1d1d1"
     inkscape:document-units="mm"
     inkscape:zoom="0.78840488"
     inkscape:cx="272.70252"
     inkscape:cy="358.31843"
     inkscape:window-width="1920"
     inkscape:window-height="1129"
     inkscape:window-x="-8"
     inkscape:window-y="-8"
     inkscape:window-maximized="1"
     inkscape:current-layer="layer1" />
  <defs
     id="defs1">
    <linearGradient
       id="linearGradient3"
       inkscape:collect="always">
      <stop
         style="stop-color:#ffff00;stop-opacity:1"
         offset="0"
         id="stop3" />
      <stop
         style="stop-color:#27d827;stop-opacity:1;"
         offset="1"
         id="stop4" />
    </linearGradient>
    <linearGradient
       id="linearGradient1"
       inkscape:collect="always">
      <stop
         style="stop-color:#000000;stop-opacity:1"
         offset="0"
         id="stop1" />
      <stop
         style="stop-color:#0000ff;stop-opacity:1"
         offset="1"
         id="stop2" />
    </linearGradient>
    <linearGradient
       inkscape:collect="always"
       xlink:href="#linearGradient1"
       id="linearGradient2"
       x1="13.928104"
       y1="117.76009"
       x2="123.23634"
       y2="11.712631"
       gradientUnits="userSpaceOnUse" />
    <linearGradient
       inkscape:collect="always"
       xlink:href="#linearGradient3"
       id="linearGradient4"
       x1="11.41017"
       y1="123.96515"
       x2="127.11673"
       y2="9.1922674"
       gradientUnits="userSpaceOnUse" />
  </defs>
  <g
     inkscape:label="Layer 1"
     inkscape:groupmode="layer"
     id="layer1">
    <rect
       style="fill:url(#linearGradient4);stroke-width:0.499999;paint-order:stroke fill markers"
       id="rect2"
       width="119.0625"
       height="119.0625"
       x="9.7322035"
       y="8.0542374"
       rx="10.583333"
       ry="10.583333" />
    <path
       style="font-weight:bold;font-size:119.553px;font-family:'Adobe Gothic Std';-inkscape-font-specification:'Adobe Gothic Std Bold';text-align:center;text-anchor:middle;stroke-width:1.56894;paint-order:stroke fill markers;fill:url(#linearGradient2)"
       d="m 15.81078,116.1505 q -0.350253,0.17513 -1.109134,0.70051 -0.700506,0.52538 -1.109135,0.81726 0.875633,-3.26903 4.553289,-3.26903 1.28426,0 2.45177,0.29188 1.16751,0.29187 2.276644,0.75888 4.086284,0 8.114193,-0.35025 4.027909,-0.35026 8.114193,-0.75889 2.043142,-4.49491 3.035525,-8.52282 1.050759,-4.02791 1.050759,-8.989822 0,-4.319787 -1.050759,-8.639573 -0.992383,-4.378161 -1.868015,-8.639572 -0.758882,-3.61928 -1.16751,-7.296936 -0.408628,-3.677656 -0.875632,-7.413687 -2.276644,-3.093901 -4.086285,-5.9543 -1.80964,-2.860399 -3.0939,-5.779174 -1.284261,-2.97715 -1.984767,-6.246177 -0.64213,-3.269027 -0.64213,-7.180185 0,-4.728415 -1.225886,-9.281703 -1.167509,-5.137043 -6.713181,-5.137043 l -0.934008,-0.64213 q -0.350253,-0.700506 -0.350253,-1.751265 0,-1.692889 1.284261,-3.093901 1.284261,-1.401012 2.626897,-2.276644 0.817257,-1.984766 2.218269,-3.210652 1.401011,-1.225885 3.093901,-1.868015 1.751264,-0.642131 3.736031,-0.875633 1.984766,-0.291877 3.852782,-0.291877 3.560905,0 6.829932,0.758881 3.327403,0.758882 6.129427,2.393395 2.802023,1.576138 5.020292,4.086284 2.276644,2.451771 3.560905,5.895925 4.378161,2.45177 7.355311,5.020292 3.035526,2.568521 5.370545,5.487296 2.33502,2.918774 4.436537,6.304553 2.101518,3.327403 4.78679,7.355311 2.159894,3.327403 4.319787,6.538055 2.218268,3.210652 4.494912,6.479679 7.997442,11.675098 16.870513,22.532939 8.93145,10.857841 18.38828,21.365429 l -1.34263,1.80964 -12.66748,-5.07867 q 1.98476,2.27665 4.08628,4.49492 2.15989,2.21826 4.14466,4.55328 l -0.29188,1.63452 q -2.80202,2.56852 -5.89592,3.61928 -3.0939,1.10913 -6.77156,1.45938 l -11.324844,0.93401 -0.934008,-0.58375 q -2.510146,-3.79441 -5.020292,-7.70557 -2.451771,-3.85278 -5.195419,-7.53044 -2.685272,-3.677651 -5.779173,-7.063429 -3.035525,-3.444154 -6.654806,-6.362928 -0.875632,3.035525 -1.634513,6.129426 -0.758882,3.035525 -1.401012,6.246181 l -1.80964,0.467 -4.261411,-3.035525 q -0.408628,1.926395 -0.64213,3.911155 -0.233502,2.04314 -0.233502,4.02791 0,0.93401 0,1.98477 0,1.05076 0.233502,1.98476 0.175126,0.58376 0.408628,1.10914 0.233502,0.52538 0.64213,0.87563 0.642131,0.52538 2.159893,0.87563 1.576139,0.40863 3.327403,0.64213 1.80964,0.29188 3.444154,0.40863 1.634514,0.11675 2.510146,0.17513 0.408629,-0.40863 1.16751,-0.93401 0.758881,-0.52538 1.401012,-0.52538 1.576138,0 2.276644,1.22589 0.758881,1.22588 0.758881,2.56852 l -2.802023,-1.75127 -1.692889,1.57614 q -0.700506,0.0584 -1.459388,0.0584 -0.700506,0 -1.401011,0 -2.159894,0 -4.378162,-0.17513 -2.218269,-0.17513 -4.203035,-0.81726 -1.517763,0.75889 -3.444154,0.75889 -1.225885,0 -2.451771,-0.23351 -1.225885,-0.17512 -2.393395,-0.64213 -2.802023,0.81726 -5.720798,0.93401 -2.918774,0.17513 -5.779173,0.17513 l -2.043142,-1.51777 q -0.875633,0.35026 -1.401012,0.58376 -0.525379,0.29188 -1.16751,0.93401 H 17.095041 Z m 15.469505,-84.352577 0.817256,-7.180185 q -2.802023,0 -4.553288,-1.517763 -1.751264,-1.517763 -2.510146,-4.203035 -0.992383,0.934008 -2.159893,1.80964 -1.109134,0.817257 -1.401012,2.218269 3.560905,0.233502 5.428921,2.276644 1.868016,1.984766 2.685272,4.78679 0.817257,2.802023 0.992384,5.9543 0.233502,3.152276 0.408628,5.779173 0.467004,-2.043142 1.050759,-3.502529 0.64213,-1.517763 1.576138,-2.510146 0.992383,-0.992384 2.393395,-1.459388 1.459387,-0.525379 3.736031,-0.525379 7.939067,0 15.41113,1.517763 7.472062,1.459387 15.0025,3.385778 -1.517763,-1.926391 -2.860399,-3.444154 -1.342636,-1.576138 -2.743648,-2.97715 -1.401011,-1.401011 -3.093901,-2.626897 -1.692889,-1.225885 -3.852782,-2.393395 -1.050759,-0.583755 -1.80964,-1.225885 -0.700506,-0.700506 -0.992383,-1.80964 -0.467004,-1.692889 -1.751265,-3.210652 -1.284261,-1.517763 -2.918775,-2.802023 -1.576138,-1.284261 -3.385778,-2.159894 -1.80964,-0.934007 -3.444154,-1.517762 3.093901,1.868015 4.203035,3.969533 1.109135,2.101518 1.109135,5.720798 0,2.393395 -0.875633,4.027909 -0.817256,1.634513 -2.276644,2.626897 -1.401011,0.992383 -3.327403,1.459387 -1.926391,0.408628 -4.086284,0.408628 -0.64213,0 -1.284261,0 -0.64213,0 -1.28426,-0.05837 l 0.175126,-2.218269 q 0.52538,0.05838 1.050759,0.116751 0.525379,0 1.109134,0 1.576139,0 3.035526,-0.350253 1.517762,-0.350253 2.685272,-1.109134 1.16751,-0.758881 1.80964,-2.043142 0.700506,-1.284261 0.700506,-3.035526 0,-4.728414 -2.918774,-7.121809 -2.918775,-2.451771 -7.472063,-2.451771 -1.284261,0 -2.685272,0.116751 -1.401012,0.05838 -2.626897,0.52538 -1.225886,0.408628 -1.984767,1.342636 -0.758881,0.875632 -0.758881,2.568521 0,1.342637 0.700506,2.159893 0.758881,0.817257 1.80964,1.284261 1.050759,0.408629 2.276644,0.583755 1.225885,0.116751 2.276644,0.116751 l -1.284261,8.814699 z M 30.638154,19.363944 q 0,-1.109135 0.467004,-1.80964 0.525379,-0.700506 1.634514,-0.700506 1.050759,0 2.218268,0.992383 1.225886,0.934008 1.868016,1.576138 -0.817257,0.583755 -1.984767,1.284261 -1.109134,0.64213 -2.101517,0.64213 -2.101518,0 -2.101518,-1.984766 z m 40.512589,21.949184 q -3.210651,-1.342637 -7.647189,-2.218269 -4.436537,-0.934008 -9.223327,-1.517763 -4.78679,-0.64213 -9.340078,-0.934007 -4.553288,-0.291878 -8.172569,-0.291878 -1.050758,0.525379 -1.80964,1.401012 -0.700506,0.875632 -1.167509,1.984766 -0.408629,1.109135 -0.642131,2.276645 -0.175126,1.167509 -0.175126,2.218268 0,5.895924 2.101517,10.449213 2.101518,4.494912 5.370545,9.106576 2.743648,3.794407 6.829933,7.238561 4.086284,3.385778 9.0482,6.479679 4.961917,3.093901 10.507588,5.837549 5.604047,2.685272 11.149719,5.078667 5.604047,2.33502 10.916216,4.261411 5.31217,1.926391 9.923833,3.444154 1.576135,0.525379 3.327405,0.934008 1.80964,0.408628 3.38578,1.050758 l 12.90098,5.195422 Q 109.85369,93.442439 101.79788,83.460231 93.742058,73.419647 86.386746,62.678557 82.533964,57.191261 78.914684,51.528838 75.295403,45.80804 71.442621,40.320744 Z m -6.07105,58.258738 3.269027,-12.900983 q -3.152276,-1.284261 -6.829932,-3.269028 -3.677656,-1.984766 -7.355312,-4.436537 -3.677656,-2.451771 -7.005058,-5.020292 -3.269028,-2.626897 -5.487296,-5.078668 0.934007,3.093901 2.918774,7.005059 2.043142,3.911158 4.319786,7.997442 2.33502,4.027909 4.670039,7.939067 2.393395,3.911157 4.086285,7.005058 l 3.385778,-2.218268 z M 55.214235,99.046486 41.787873,75.404413 q 0.408628,2.218269 1.109134,4.961917 0.700506,2.685272 1.342636,5.487296 0.64213,2.743648 0.992383,5.137043 0.408629,2.393395 0.408629,4.203035 0,0.467004 0,0.934008 1.634514,1.634513 3.444154,3.152276 1.868015,1.517762 3.677655,2.918772 z m 38.936451,17.512644 q 2.393395,-0.11675 5.253794,-0.29187 2.8604,-0.11676 5.66242,-0.52538 2.8604,-0.35026 5.4873,-1.28426 2.6269,-0.93401 4.61166,-2.6269 L 104.07452,100.09725 Q 96.018702,97.295222 87.962884,94.785076 79.965442,92.27493 72.201502,88.538898 q 3.327403,2.685273 6.304553,6.071051 3.035526,3.327403 5.720798,7.005061 2.685273,3.67765 5.137043,7.53044 2.451771,3.85278 4.78679,7.41368 z M 52.17871,104.76728 46.808165,100.33075 q -1.634514,3.15227 -2.393395,6.82993 -0.700506,3.67765 -0.700506,7.18018 2.918774,0 5.837549,-0.2335 2.97715,-0.17512 5.779173,-0.99238 1.16751,-2.6269 1.401012,-5.25379 0.233502,-2.56853 0.233502,-5.37055 0,-0.40863 -0.05838,-0.70051 -0.05838,-0.35025 -0.05838,-0.58375 0,-0.2335 0.05838,-0.467 l -2.97715,3.85278 z"
       id="text1"
       aria-label="𓅃" />
  </g>
</svg>
